<svg xmlns="http://www.w3.org/2000/svg" width="40" height="40" viewBox="0 0 40 40">
    <g fill="none" fill-rule="evenodd">
        <g>
            <g>
                <g>
                    <g>
                        <path fill="#8993A4" d="M.167 5.44c-.223-.268-.223-.696 0-.964C.319 4.293 3.935 0 8.5 0s8.181 4.293 8.333 4.476c.223.268.223.696 0 .965-.152.182-3.768 4.476-8.333 4.476S.319 5.623.167 5.44z" transform="translate(-308 -220) translate(22 214) translate(286 6) translate(12 15)"/>
                        <path fill="#FFF" d="M8.5 7.083c-1.174 0-2.125-.951-2.125-2.125 0-1.173.951-2.125 2.125-2.125s2.125.952 2.125 2.125c0 1.174-.951 2.125-2.125 2.125zm0-5.666c-1.956 0-3.542 1.585-3.542 3.541S6.544 8.5 8.5 8.5c1.956 0 3.542-1.586 3.542-3.542 0-1.956-1.586-3.541-3.542-3.541z" transform="translate(-308 -220) translate(22 214) translate(286 6) translate(12 15)"/>
                    </g>
                </g>
            </g>
        </g>
    </g>
</svg>
